#!OML:ASF I:\Actors\actors\Patient Classification 2\Patient 1\Session 1\actor1.ASF
:FULLY-SPECIFIED
:DEGREES
503
root -0.63674 18.6719 5.29153 0.201581 2.25804 -2.14013
lowerback 6.21252 4.03197 1.08402
upperback -0.15509 5.45925 0.210418
thorax -3.55211 2.69487 -0.884464
lowerneck -12.8239 -7.59983 -4.54066
upperneck 19.4047 -11.1944 7.56982
head 8.8789 -4.84667 1.97633
rclavicle 1.59525e-014 6.36111e-015
rhumerus -12.3635 37.5349 -93.7013
rradius 85.589
rwrist -12.9827
rhand -17.5582 -48.583
rfingers 7.12502
rthumb 8.69667 -78.3839
lclavicle 1.59525e-014 6.36111e-015
lhumerus -39.2511 -31.8598 92.6361
lradius 96.6905
lwrist 0.200442
lhand -20.8543 -46.4132
lfingers 7.12502
lthumb 5.51503 -16.505
rfemur 0 0 0
rtibia 0
rfoot 0 0
rtoes 0
lfemur -6.52808 -5.24127 -11.9042
ltibia 24.5525
lfoot -21.719 11.4851
ltoes -56.4304
504
root -0.643599 18.6681 5.27411 0.057681 2.19373 -2.13981
lowerback 6.51327 4.09894 1.19194
upperback 0.0412451 5.55396 0.11156
thorax -3.49522 2.74021 -1.06775
lowerneck -12.9313 -7.64111 -4.66379
upperneck 19.1583 -11.2634 7.85164
head 8.84496 -4.86313 2.07827
rclavicle -6.6481e-014 7.35503e-015
rhumerus -12.4811 39.7524 -93.6565
rradius 84.4513
rwrist -14.4366
rhand -20.8564 -43.7583
rfingers 7.12502
rthumb 5.51303 -73.6666
lclavicle -6.6481e-014 7.35503e-015
lhumerus -38.0388 -32.7415 92.3182
lradius 93.5884
lwrist -0.498463
lhand -12.5288 -36.076
lfingers 7.12502
lthumb 13.5474 -6.53676
rfemur 0 0 0
rtibia 0
rfoot 0 0
rtoes 0
lfemur -6.42971 -5.17192 -11.8892
ltibia 24.5806
lfoot -21.6753 11.4533
ltoes -56.4174
505
root -0.649629 18.6644 5.25604 -0.0611928 2.13282 -2.09934
lowerback 6.88395 4.19954 1.23847
upperback 0.244178 5.68904 -0.0110995
thorax -3.47204 2.80627 -1.25128
lowerneck -13.017 -7.73517 -4.80397
upperneck 18.7578 -11.425 8.30034
head 8.77388 -4.91272 2.22765
rclavicle -7.00095e-014 1.61016e-014
rhumerus -12.8486 42.4017 -93.5797
rradius 85.5783
rwrist -10.9077
rhand -24.6339 -40.4557
rfingers 7.12502
rthumb 1.86514 -70.4273
lclavicle -7.00095e-014 1.61016e-014
lhumerus -36.7661 -33.7912 91.999
lradius 90.6037
lwrist -1.1038
lhand -4.60853 -32.5896
lfingers 7.12502
lthumb 21.1695 -3.72541
rfemur 0 0 0
rtibia 0
rfoot 0 0
rtoes 0
lfemur -6.37917 -5.0935 -11.9224
ltibia 24.628
lfoot -21.5996 11.4164
ltoes -56.3977
506
root -0.657442 18.6627 5.23805 -0.151878 2.1826 -2.08526
lowerback 7.28429 4.25678 1.20839
upperback 0.42364 5.76303 -0.0749606
thorax -3.50397 2.84282 -1.33149
lowerneck -12.977 -7.7989 -4.85217
upperneck 18.1525 -11.5098 8.59015
head 8.58993 -4.94683 2.32466
rclavicle 1.43373e-014 -4.37326e-015
rhumerus -13.2985 44.479 -93.36
rradius 87.8024
rwrist -6.40519
rhand -24.7177 -39.9578
rfingers 7.12502
rthumb 1.78419 -69.93
lclavicle 1.43373e-014 -4.37326e-015
lhumerus -35.9545 -35.2162 91.8642
lradius 87.794
lwrist -1.81769
lhand -0.0102302 -32.889
lfingers 7.12502
lthumb 25.5806 -4.58686
rfemur 0 0 0
rtibia 0
rfoot 0 0
rtoes 0
lfemur -6.39095 -5.10393 -11.9089
ltibia 24.6926
lfoot -21.5057 11.3103
ltoes -56.3205
507
root -0.668846 18.6609 5.23317 -0.198316 2.27068 -2.20116
lowerback 7.4426 4.27866 1.16188
upperback 0.626213 5.78944 -0.0274235
thorax -3.39113 2.85912 -1.26272
lowerneck -12.972 -7.8207 -4.86367
upperneck 17.6145 -11.4921 8.62237
head 8.4093 -4.95289 2.3422
rclavicle -2.14812e-014 1.07344e-014
rhumerus -13.6505 46.1455 -93.1092
rradius 90.4706
rwrist -3.84157
rhand -25.0616 -37.8198
rfingers 7.12502
rthumb 1.45203 -67.7946
lclavicle -2.14812e-014 1.07344e-014
lhumerus -36.0191 -37.3122 92.1357
lradius 86.1166
lwrist -4.38483
lhand -3.47907 -35.0361
lfingers 7.12502
lthumb 22.2541 -6.29736
rfemur 0 0 0
rtibia 0
rfoot 0 0
rtoes 0
lfemur -6.42681 -5.16583 -11.7336
ltibia 24.7832
lfoot -21.4707 11.1758
ltoes -56.246
508
root -0.683977 18.6564 5.21287 -0.389601 2.60931 -2.33554
lowerback 8.02754 4.19092 1.16111
upperback 0.784067 5.67891 0.0162321
thorax -3.56078 2.80201 -1.24756
lowerneck -13.0289 -7.82729 -4.82273
upperneck 17.2043 -11.4595 8.58053
head 8.27449 -4.94975 2.3263
rclavicle 1.06337e-013 -2.5842e-015
rhumerus -13.5809 47.1388 -92.896
rradius 92.8188
rwrist -1.92687
rhand -25.241 -34.6137
rfingers 7.12502
rthumb 1.27876 -64.5896
lclavicle 1.06337e-013 -2.5842e-015
lhumerus -36.6423 -39.3192 92.4845
lradius 85.8704
lwrist -4.71173
lhand -6.85437 -35.8516
lfingers 7.12502
lthumb 19.0109 -6.76071
rfemur 0 0 0
rtibia 0
rfoot 0 0
rtoes 0
lfemur -6.46454 -5.34571 -11.5349
ltibia 24.9021
lfoot -21.3199 11.028
ltoes -56.2977
